<?xml version="1.0" encoding="utf-8"?>
<!DOCTYPE svg PUBLIC "-//W3C//DTD SVG 1.1//EN" "http://www.w3.org/Graphics/SVG/1.1/DTD/svg11.dtd">
<svg version="1.1" xmlns="http://www.w3.org/2000/svg" xmlns:xlink="http://www.w3.org/1999/xlink" x="0px" y="0px" viewBox="0 0 1000 1000" enable-background="new 0 0 1000 1000" xml:space="preserve">
<g><g transform="translate(0.000000,511.000000) scale(0.100000,-0.100000)"><path fill="dark" d="M4700.2,4989.7c-680.7-130.3-1203.8-618.4-1359.4-1268c-38.9-163.4-44.7-515.4-9.7-678.7c13.6-64.2,29.2-122.5,33.1-128.4c3.9-7.8,93.3,31.1,196.4,83.6c847.9,424,2079,429.8,2899.7,13.6c101.1-52.5,188.6-91.4,192.5-87.5c31.1,31.1,66.1,355.9,56.4,519.3c-42.8,723.4-552.3,1330.2-1266.1,1516.9C5242.8,5011.1,4890.8,5026.6,4700.2,4989.7z"/><path fill="dark" d="M4706,2877.6c-970.4-110.9-1610.3-517.3-1993.4-1262.2c-252.8-492-363.7-1056-350.1-1777.5l7.8-357.9l-107-56.4c-58.3-29.2-169.2-116.7-245-192.5c-340.3-338.4-414.2-828.5-190.6-1256.3c126.4-241.2,342.3-420.1,612.6-511.5l140-46.7l73.9-206.2c299.5-853.7,892.7-1544.2,1567.5-1828.1c657.3-276.1,1382.7-217.8,1983.7,155.6c564,352,1036.6,980.2,1291.3,1721.1l64.2,186.7l132.2,62.2c73.9,35,180.9,108.9,250.9,171.1c243.1,225.6,355.9,478.4,355.9,793.5c0,354-149.8,649.6-441.5,877.1l-73.9,56.4l21.4,303.4c25.3,369.5,0,797.4-68.1,1135.8c-268.4,1330.2-1116.3,2010.9-2547.7,2042C5009.4,2891.2,4791.6,2887.3,4706,2877.6z M4272.4,526.4c79.7-198.4,272.3-476.5,459-663.2c425.9-424,1024.9-684.6,1750.3-756.5c215.9-23.3,667.1-25.3,886.8-3.9c165.3,15.6,243.1-15.6,369.5-143.9c143.9-147.8,215.9-359.8,194.5-558.2c-35-297.5-287.8-573.7-564-612.6c-48.6-5.8-95.3-21.4-103.1-33c-9.7-11.7-37-95.3-60.3-186.7c-161.4-606.8-530.9-1199.9-966.5-1551.9c-190.6-153.7-521.2-328.7-717.6-381.2c-912.1-239.2-1816.4,260.6-2343.5,1291.3c-105,206.1-229.5,538.7-289.8,770.2l-21.4,81.7l-142,7.8c-258.7,13.6-472.6,157.5-589.3,396.7c-48.6,101.1-56.4,136.1-56.4,289.8c0,151.7,7.8,190.6,54.4,291.7c108.9,233.4,287.8,361.7,571.8,410.4c626.2,108.9,1110.5,427.9,1330.2,873.2c81.7,167.3,153.6,418.1,153.6,538.7c0,40.8,5.8,73.9,15.5,73.9C4212.1,660.6,4241.2,600.3,4272.4,526.4z"/><path fill="dark" d="M3303.8-1023.6c-42.8-3.9-173.1-17.5-291.7-27.2c-336.4-33.1-398.7-68.1-398.7-215.9c0-56.4,13.6-83.6,60.3-122.5c33.1-27.2,79.7-50.6,107-50.6c25.3,0,46.7-5.8,46.7-15.6c0-83.6,48.6-373.4,79.7-480.4c130.3-435.6,338.4-569.8,941.3-606.8c313.1-17.5,573.7,44.7,735.1,180.9c132.3,110.8,299.5,400.6,385.1,665.1c23.3,75.8,54.4,140,66.1,140c11.7,0,40.8-64.2,66.1-140c54.5-169.2,194.5-447.3,284-565.9c75.8-101.1,210-188.7,359.8-239.2c87.5-29.2,161.4-37,389-35c552.3,5.8,776,95.3,939.3,381.2c62.2,107,122.5,305.3,138.1,453.1c25.3,235.3,29.2,243.1,81.7,243.1c64.2,0,157.5,48.6,182.8,95.3c46.7,89.5,13.6,198.4-73.9,243.1c-143.9,73.9-1133.8,99.2-1588.9,40.8c-138.1-17.5-324.8-48.6-414.2-70c-223.7-50.6-515.4-50.6-684.6,3.9c-247,77.8-552.3,116.7-952.9,124.5C3552.8-1017.8,3346.6-1019.7,3303.8-1023.6z M4400.7-1435.9c101.1-23.3,190.6-48.6,200.3-58.3c25.3-25.3-81.7-295.6-177-453.1c-95.3-159.5-192.5-213.9-400.6-227.5c-143.9-9.7-412.3,19.4-529,56.4c-87.5,27.2-153.6,114.7-200.3,264.5c-42.8,140-72,390.9-50.6,443.4c11.7,31.1,52.5,33.1,494,23.3C4124.6-1395.1,4252.9-1404.8,4400.7-1435.9z M6829.8-1500.1c13.6-200.3-87.5-507.6-192.5-585.4c-66.1-50.6-390.9-99.2-585.4-89.4c-213.9,11.7-309.2,66.1-406.5,227.5c-105,173.1-202.2,431.7-171.1,451.2c27.2,15.6,266.4,54.5,484.3,75.8c79.7,7.8,307.3,13.6,505.6,11.7l359.8-2L6829.8-1500.1z"/><path fill="dark" d="M4278.2-3096.8c-44.7-62.2-38.9-93.3,29.2-198.4c79.7-120.6,247-237.2,416.2-287.8c161.4-50.6,464.8-58.3,632.1-17.5c223.6,56.4,402.6,180.9,488.1,342.3c42.8,81.7,44.7,91.4,17.5,140c-56.4,101.1-161.4,83.6-239.2-40.8c-42.8-68.1-83.6-103.1-184.8-151.7c-124.5-62.2-138.1-64.2-373.4-64.2c-227.6,0-250.9,3.9-354,54.5c-99.2,48.6-140,85.6-252.8,225.6C4410.4-3040.4,4317.1-3040.4,4278.2-3096.8z"/></g></g>
</svg>